<mxfile host="app.diagrams.net" modified="2021-11-08T06:40:04.271Z" agent="5.0 (Windows NT 10.0; Win64; x64) AppleWebKit/537.36 (KHTML, like Gecko) Chrome/94.0.4606.81 Safari/537.36" etag="_adr8FZXBbq3Z6Sn4FxD" version="14.9.8" type="github">
  <diagram id="8xRUTOPSy6BMz55XuLGl" name="Page-1">
    <mxGraphModel dx="1422" dy="762" grid="1" gridSize="10" guides="1" tooltips="1" connect="1" arrows="1" fold="1" page="1" pageScale="1" pageWidth="827" pageHeight="1169" math="0" shadow="0">
      <root>
        <mxCell id="0" />
        <mxCell id="1" parent="0" />
        <mxCell id="I3DH05FhnN25VYik7rHy-3" style="edgeStyle=orthogonalEdgeStyle;rounded=0;orthogonalLoop=1;jettySize=auto;html=1;entryX=0.5;entryY=0;entryDx=0;entryDy=0;" edge="1" parent="1" source="I3DH05FhnN25VYik7rHy-1" target="I3DH05FhnN25VYik7rHy-2">
          <mxGeometry relative="1" as="geometry" />
        </mxCell>
        <mxCell id="I3DH05FhnN25VYik7rHy-1" value="上游供应商" style="rounded=0;whiteSpace=wrap;html=1;" vertex="1" parent="1">
          <mxGeometry x="280" y="80" width="120" height="60" as="geometry" />
        </mxCell>
        <mxCell id="I3DH05FhnN25VYik7rHy-2" value="东健" style="rounded=0;whiteSpace=wrap;html=1;" vertex="1" parent="1">
          <mxGeometry x="280" y="200" width="120" height="60" as="geometry" />
        </mxCell>
        <mxCell id="I3DH05FhnN25VYik7rHy-5" value="向上游供应商采购入库" style="rounded=0;whiteSpace=wrap;html=1;" vertex="1" parent="1">
          <mxGeometry x="80" y="320" width="120" height="60" as="geometry" />
        </mxCell>
      </root>
    </mxGraphModel>
  </diagram>
</mxfile>
